<?xml version="1.0" encoding="UTF-8" ?>
<!DOCTYPE svg PUBLIC "-//W3C//DTD SVG 1.1//EN" "http://www.w3.org/Graphics/SVG/1.1/DTD/svg11.dtd">
<svg width="1160pt" height="660pt" viewBox="0 0 1160 660" version="1.1" xmlns="http://www.w3.org/2000/svg">
<path fill="#b2b2b2" d=" M 0.00 0.00 L 1160.00 0.00 L 1160.00 211.10 C 1114.04 221.68 1067.89 231.42 1021.88 241.81 C 1010.33 244.07 998.92 247.08 987.34 249.16 L 986.32 248.95 C 958.95 245.18 931.37 243.04 904.02 239.17 C 895.93 241.75 887.90 244.77 879.96 247.83 C 865.31 252.03 851.20 258.04 836.66 262.62 C 826.86 266.05 817.57 270.72 808.25 275.25 C 801.24 276.09 794.52 278.23 787.60 279.46 C 776.99 280.40 766.29 280.34 755.74 281.75 C 734.31 281.07 712.90 278.92 691.45 278.99 C 654.46 276.27 617.30 274.70 580.22 273.27 C 548.88 271.14 517.47 269.88 486.10 268.29 C 470.78 270.32 455.55 272.92 440.28 275.27 C 438.57 275.10 436.87 274.92 435.18 274.74 C 412.84 271.26 390.47 267.96 368.13 264.44 C 305.09 255.37 242.47 243.68 179.60 233.58 C 119.78 226.96 59.81 221.79 0.00 215.20 L 0.00 0.00 Z" />
<path fill="#636363" d=" M 1021.88 241.81 C 1067.89 231.42 1114.04 221.68 1160.00 211.10 L 1160.00 215.81 C 1143.54 222.41 1125.85 224.71 1108.63 228.58 C 1076.61 235.19 1044.61 241.83 1012.61 248.50 C 996.11 250.84 981.69 259.95 968.18 269.15 C 965.35 270.95 963.06 274.15 959.11 273.24 C 949.60 274.81 939.96 274.93 930.38 275.41 C 900.93 289.29 871.62 303.49 842.01 316.99 C 829.32 317.90 817.68 324.23 804.90 324.99 C 813.04 319.35 821.78 314.54 831.07 311.06 C 855.55 300.98 879.84 290.42 904.31 280.31 C 905.65 279.68 906.90 278.86 908.15 278.04 C 923.87 270.44 940.39 264.53 956.36 257.44 C 966.10 252.73 977.24 252.80 987.34 249.16 C 998.92 247.08 1010.33 244.07 1021.88 241.81 Z" />
<path fill="#969696" d=" M 0.00 215.20 C 59.81 221.79 119.78 226.96 179.60 233.58 C 242.47 243.68 305.09 255.37 368.13 264.44 C 355.43 264.78 342.73 266.49 330.03 265.89 C 315.56 261.32 301.37 255.16 286.11 253.79 C 263.29 249.89 240.41 246.47 217.60 242.53 C 201.56 240.50 186.05 247.39 170.01 247.04 C 160.29 247.63 150.69 245.75 140.98 245.90 C 94.00 241.11 47.02 236.19 0.00 231.90 L 0.00 215.20 Z" />
<path fill="#626262" d=" M 1108.63 228.58 C 1125.85 224.71 1143.54 222.41 1160.00 215.81 L 1160.00 218.74 C 1139.98 226.05 1120.00 233.51 1100.11 241.15 C 1083.16 247.35 1066.57 254.68 1048.99 258.95 C 1020.33 266.03 991.91 274.04 963.32 281.38 C 943.56 286.23 923.70 290.77 904.08 296.15 C 890.04 302.78 876.01 309.45 861.85 315.82 C 859.15 316.99 856.34 318.20 853.37 318.39 C 836.48 321.09 819.63 323.95 802.76 326.78 C 803.44 326.15 804.15 325.55 804.90 324.99 C 817.68 324.23 829.32 317.90 842.01 316.99 C 871.62 303.49 900.93 289.29 930.38 275.41 C 939.96 274.93 949.60 274.81 959.11 273.24 C 963.06 274.15 965.35 270.95 968.18 269.15 C 981.69 259.95 996.11 250.84 1012.61 248.50 C 1044.61 241.83 1076.61 235.19 1108.63 228.58 Z" />
<path fill="#5d5d5d" d=" M 1100.11 241.15 C 1120.00 233.51 1139.98 226.05 1160.00 218.74 L 1160.00 220.76 C 1119.06 233.48 1080.90 253.94 1039.24 264.43 C 1027.57 269.22 1014.90 270.69 1003.15 275.17 C 975.39 287.65 946.77 298.14 918.00 307.99 C 903.71 315.05 887.26 314.06 872.12 318.18 C 839.71 323.54 807.07 327.53 774.59 332.45 C 758.22 335.48 741.59 337.98 725.96 343.91 C 716.72 347.43 705.75 347.03 697.97 353.93 C 693.22 355.73 687.52 356.20 683.75 359.87 C 680.69 359.88 677.77 359.94 674.77 359.87 C 683.29 354.61 693.27 352.49 702.36 348.42 C 713.69 343.03 726.11 340.78 737.95 336.86 C 751.97 332.29 766.95 332.72 781.42 330.55 C 788.55 329.41 795.67 328.17 802.76 326.78 C 819.63 323.95 836.48 321.09 853.37 318.39 C 856.34 318.20 859.15 316.99 861.85 315.82 C 876.01 309.45 890.04 302.78 904.08 296.15 C 923.70 290.77 943.56 286.23 963.32 281.38 C 991.91 274.04 1020.33 266.03 1048.99 258.95 C 1066.57 254.68 1083.16 247.35 1100.11 241.15 Z" />
<path fill="#595959" d=" M 1039.24 264.43 C 1080.90 253.94 1119.06 233.48 1160.00 220.76 L 1160.00 231.88 C 1145.98 239.55 1131.92 247.15 1117.99 254.97 C 1099.59 262.94 1081.20 270.94 1062.67 278.59 C 1049.19 282.38 1035.58 285.80 1021.90 288.77 C 1005.96 290.23 990.07 292.34 974.09 293.19 C 964.87 294.43 957.38 300.51 948.96 303.95 C 937.65 308.64 927.10 314.96 915.87 319.80 C 898.23 322.06 880.70 325.24 862.99 326.98 C 855.71 327.71 848.73 330.01 841.61 331.48 C 829.39 333.40 817.19 329.30 804.97 330.97 C 781.55 334.06 758.12 337.39 735.23 343.34 C 722.59 347.89 709.67 351.51 697.05 356.08 C 697.28 355.54 697.74 354.47 697.97 353.93 C 705.75 347.03 716.72 347.43 725.96 343.91 C 741.59 337.98 758.22 335.48 774.59 332.45 C 807.07 327.53 839.71 323.54 872.12 318.18 C 887.26 314.06 903.71 315.05 918.00 307.99 C 946.77 298.14 975.39 287.65 1003.15 275.17 C 1014.90 270.69 1027.57 269.22 1039.24 264.43 Z" />
<path fill="#949494" d=" M 0.00 231.90 C 47.02 236.19 94.00 241.11 140.98 245.90 C 150.69 245.75 160.29 247.63 170.01 247.04 C 186.05 247.39 201.56 240.50 217.60 242.53 C 240.41 246.47 263.29 249.89 286.11 253.79 C 301.37 255.16 315.56 261.32 330.03 265.89 C 342.73 266.49 355.43 264.78 368.13 264.44 C 390.47 267.96 412.84 271.26 435.18 274.74 C 417.76 278.01 399.92 277.13 382.31 278.31 C 374.11 279.62 365.79 278.38 357.59 279.40 C 341.46 282.42 326.77 273.63 311.77 269.34 C 293.86 264.34 276.54 257.43 258.59 252.55 C 254.92 252.43 251.30 250.63 247.59 251.39 C 227.07 254.51 206.62 258.02 186.11 261.20 C 179.44 262.26 172.78 263.61 166.02 263.86 C 141.42 261.97 116.72 261.47 92.10 259.77 C 65.89 256.65 39.53 254.71 13.34 251.57 C 10.29 251.28 6.26 247.79 3.85 250.72 C 2.57 250.38 1.29 250.08 0.00 249.79 L 0.00 231.90 Z" />
<path fill="#585858" d=" M 1117.99 254.97 C 1131.92 247.15 1145.98 239.55 1160.00 231.88 L 1160.00 257.66 C 1151.68 260.04 1145.02 265.88 1137.10 269.13 C 1119.19 276.32 1100.60 281.88 1083.16 290.21 C 1067.11 297.10 1051.03 303.92 1035.16 311.21 C 1019.00 317.49 1004.27 326.92 988.01 332.96 C 971.81 335.32 955.40 336.48 939.01 336.11 C 911.69 339.59 884.31 342.61 856.99 346.02 C 843.33 348.67 830.11 353.14 816.66 356.60 C 803.85 360.92 790.21 358.15 777.01 359.15 C 757.66 361.18 737.98 358.11 718.87 362.55 C 707.39 359.72 695.47 359.99 683.75 359.87 C 687.52 356.20 693.22 355.73 697.97 353.93 C 697.74 354.47 697.28 355.54 697.05 356.08 C 709.67 351.51 722.59 347.89 735.23 343.34 C 758.12 337.39 781.55 334.06 804.97 330.97 C 817.19 329.30 829.39 333.40 841.61 331.48 C 848.73 330.01 855.71 327.71 862.99 326.98 C 880.70 325.24 898.23 322.06 915.87 319.80 C 927.10 314.96 937.65 308.64 948.96 303.95 C 957.38 300.51 964.87 294.43 974.09 293.19 C 990.07 292.34 1005.96 290.23 1021.90 288.77 C 1035.58 285.80 1049.19 282.38 1062.67 278.59 C 1081.20 270.94 1099.59 262.94 1117.99 254.97 Z" />
<path fill="#6a6a6a" d=" M 879.96 247.83 C 887.90 244.77 895.93 241.75 904.02 239.17 C 931.37 243.04 958.95 245.18 986.32 248.95 C 975.92 250.96 965.00 251.74 955.30 256.30 C 947.91 259.48 940.37 263.24 932.01 262.04 C 911.67 261.13 891.38 259.29 870.99 259.97 C 862.21 259.38 853.67 262.07 845.86 265.83 C 825.50 275.19 804.74 283.68 784.64 293.58 C 771.74 299.03 759.65 306.19 746.86 311.86 C 742.45 313.36 741.15 312.72 742.97 309.96 C 767.74 299.30 791.99 287.49 816.72 276.73 C 830.00 271.22 842.62 264.27 856.03 259.06 C 863.84 254.98 872.70 252.85 879.96 247.83 Z" />
<path fill="#6d6d6d" d=" M 836.66 262.62 C 851.20 258.04 865.31 252.03 879.96 247.83 C 872.70 252.85 863.84 254.98 856.03 259.06 C 842.62 264.27 830.00 271.22 816.72 276.73 C 791.99 287.49 767.74 299.30 742.97 309.96 C 739.22 310.46 735.47 310.35 731.75 309.72 C 732.36 309.46 733.56 308.93 734.16 308.67 C 743.53 304.91 753.16 301.75 762.24 297.29 C 769.81 293.40 777.58 289.92 785.27 286.29 C 787.30 285.37 789.28 284.32 791.24 283.25 C 796.77 280.28 802.72 278.20 808.25 275.25 C 817.57 270.72 826.86 266.05 836.66 262.62 Z" />
<path fill="#929292" d=" M 3.85 250.72 C 6.26 247.79 10.29 251.28 13.34 251.57 C 39.53 254.71 65.89 256.65 92.10 259.77 C 116.72 261.47 141.42 261.97 166.02 263.86 C 172.78 263.61 179.44 262.26 186.11 261.20 C 206.62 258.02 227.07 254.51 247.59 251.39 C 251.30 250.63 254.92 252.43 258.59 252.55 C 276.54 257.43 293.86 264.34 311.77 269.34 C 326.77 273.63 341.46 282.42 357.59 279.40 C 365.79 278.38 374.11 279.62 382.31 278.31 C 399.92 277.13 417.76 278.01 435.18 274.74 C 436.87 274.92 438.57 275.10 440.28 275.27 C 438.56 276.76 436.50 277.42 434.11 277.25 C 415.72 279.89 397.42 283.07 379.11 286.24 C 354.14 291.64 328.40 290.93 303.00 290.90 C 274.78 285.21 246.61 279.22 218.38 273.58 C 211.25 272.15 204.14 274.22 197.10 275.17 C 188.21 276.64 179.16 277.51 170.48 279.98 C 161.05 280.07 151.62 279.78 142.20 280.21 C 130.72 278.41 119.00 279.89 107.58 277.59 C 95.51 275.50 83.12 274.80 71.23 271.87 C 67.57 270.00 63.70 268.58 59.81 267.29 C 41.09 261.98 22.52 256.19 3.85 250.72 Z" />
<path fill="#686868" d=" M 955.30 256.30 C 965.00 251.74 975.92 250.96 986.32 248.95 L 987.34 249.16 C 977.24 252.80 966.10 252.73 956.36 257.44 C 940.39 264.53 923.87 270.44 908.15 278.04 C 901.83 278.88 896.47 282.93 890.26 284.25 C 881.87 284.71 873.55 286.93 865.11 285.74 C 855.42 284.60 845.67 283.92 836.07 282.16 C 811.38 294.58 787.18 308.16 762.31 320.27 C 749.45 323.49 736.03 320.95 722.99 322.78 C 703.68 322.60 685.07 328.40 666.11 331.25 C 649.61 334.38 633.09 337.30 616.60 340.48 C 603.65 341.39 593.66 351.67 580.74 352.67 C 577.34 352.35 574.01 352.37 570.76 353.38 C 562.07 352.15 553.53 349.61 544.75 349.22 C 542.59 348.72 540.50 347.98 538.47 347.11 C 539.43 346.33 540.50 346.06 541.70 346.29 C 551.54 347.35 561.09 350.46 570.98 350.98 C 586.08 345.69 600.84 339.38 615.85 333.82 C 618.16 332.59 621.24 332.15 622.84 329.89 L 623.32 329.30 C 632.99 325.09 643.12 321.94 652.51 317.13 C 655.92 316.25 659.07 314.62 662.39 313.49 C 678.57 312.06 694.79 312.05 710.99 311.04 C 717.90 310.78 725.01 311.69 731.75 309.72 C 735.47 310.35 739.22 310.46 742.97 309.96 C 741.15 312.72 742.45 313.36 746.86 311.86 C 759.65 306.19 771.74 299.03 784.64 293.58 C 804.74 283.68 825.50 275.19 845.86 265.83 C 853.67 262.07 862.21 259.38 870.99 259.97 C 891.38 259.29 911.67 261.13 932.01 262.04 C 940.37 263.24 947.91 259.48 955.30 256.30 Z" />
<path fill="#8c8c8c" d=" M 0.00 249.79 C 1.29 250.08 2.57 250.38 3.85 250.72 C 22.52 256.19 41.09 261.98 59.81 267.29 C 63.70 268.58 67.57 270.00 71.23 271.87 C 60.85 271.92 50.76 268.40 40.38 268.57 C 26.92 269.23 13.42 268.66 0.00 270.10 L 0.00 249.79 Z" />
<path fill="#565656" d=" M 1137.10 269.13 C 1145.02 265.88 1151.68 260.04 1160.00 257.66 L 1160.00 306.76 C 1146.38 310.47 1132.90 314.65 1119.25 318.22 C 1089.31 323.63 1058.80 324.99 1028.62 328.59 C 1022.18 328.79 1017.22 333.06 1011.63 335.56 C 981.45 342.05 951.30 348.71 921.12 355.18 C 897.72 357.81 874.47 361.74 851.00 363.82 C 824.01 364.73 797.08 366.83 770.10 367.20 C 762.54 367.91 754.90 369.72 747.30 368.66 C 743.21 367.44 738.97 367.24 734.76 367.22 C 729.42 365.79 724.15 364.15 718.87 362.55 C 737.98 358.11 757.66 361.18 777.01 359.15 C 790.21 358.15 803.85 360.92 816.66 356.60 C 830.11 353.14 843.33 348.67 856.99 346.02 C 884.31 342.61 911.69 339.59 939.01 336.11 C 955.40 336.48 971.81 335.32 988.01 332.96 C 1004.27 326.92 1019.00 317.49 1035.16 311.21 C 1051.03 303.92 1067.11 297.10 1083.16 290.21 C 1100.60 281.88 1119.19 276.32 1137.10 269.13 Z" />
<path fill="#757575" d=" M 40.38 268.57 C 50.76 268.40 60.85 271.92 71.23 271.87 C 83.12 274.80 95.51 275.50 107.58 277.59 C 119.00 279.89 130.72 278.41 142.20 280.21 C 125.39 282.96 108.45 284.85 91.60 287.41 C 70.01 289.17 48.36 289.84 26.75 291.38 C 17.79 290.94 8.96 289.25 0.00 288.90 L 0.00 270.10 C 13.42 268.66 26.92 269.23 40.38 268.57 Z" />
<path fill="#919191" d=" M 440.28 275.27 C 455.55 272.92 470.78 270.32 486.10 268.29 C 517.47 269.88 548.88 271.14 580.22 273.27 C 553.31 275.19 526.25 273.04 499.30 274.37 C 489.60 275.78 479.68 273.81 470.11 276.21 C 437.64 282.13 405.08 287.53 372.63 293.52 C 351.37 294.38 330.10 294.82 308.84 295.47 C 304.96 295.47 301.09 295.65 297.22 295.75 C 262.03 291.18 226.78 287.15 191.59 282.58 C 184.67 280.93 177.14 282.40 170.48 279.98 C 179.16 277.51 188.21 276.64 197.10 275.17 C 204.14 274.22 211.25 272.15 218.38 273.58 C 246.61 279.22 274.78 285.21 303.00 290.90 C 328.40 290.93 354.14 291.64 379.11 286.24 C 397.42 283.07 415.72 279.89 434.11 277.25 C 436.50 277.42 438.56 276.76 440.28 275.27 Z" />
<path fill="#8e8e8e" d=" M 580.22 273.27 C 617.30 274.70 654.46 276.27 691.45 278.99 C 664.76 281.34 637.79 279.30 610.99 280.03 C 582.77 282.30 554.37 280.13 526.10 281.25 C 507.49 283.05 488.75 281.24 470.11 282.26 C 458.50 284.25 446.94 286.49 435.32 288.36 C 426.00 290.00 416.48 287.22 407.20 289.31 C 398.79 292.69 390.01 294.86 381.33 297.32 C 368.61 299.45 355.40 296.06 342.85 299.61 C 338.15 299.08 333.43 298.94 328.73 299.25 C 324.76 298.66 320.75 298.36 316.75 298.28 C 314.03 297.60 311.40 296.60 308.84 295.47 C 330.10 294.82 351.37 294.38 372.63 293.52 C 405.08 287.53 437.64 282.13 470.11 276.21 C 479.68 273.81 489.60 275.78 499.30 274.37 C 526.25 273.04 553.31 275.19 580.22 273.27 Z" />
<path fill="#979797" d=" M 787.60 279.46 C 794.52 278.23 801.24 276.09 808.25 275.25 C 802.72 278.20 796.77 280.28 791.24 283.25 C 779.36 283.47 767.57 282.33 755.74 281.75 C 766.29 280.34 776.99 280.40 787.60 279.46 Z" />
<path fill="#656565" d=" M 890.26 284.25 C 896.47 282.93 901.83 278.88 908.15 278.04 C 906.90 278.86 905.65 279.68 904.31 280.31 C 879.84 290.42 855.55 300.98 831.07 311.06 C 821.78 314.54 813.04 319.35 804.90 324.99 C 804.15 325.55 803.44 326.15 802.76 326.78 C 795.67 328.17 788.55 329.41 781.42 330.55 C 766.95 332.72 751.97 332.29 737.95 336.86 C 726.11 340.78 713.69 343.03 702.36 348.42 C 693.27 352.49 683.29 354.61 674.77 359.87 C 662.89 360.44 651.05 359.82 639.22 359.16 C 630.68 359.42 621.88 357.86 613.51 360.02 C 599.84 355.27 584.98 355.43 570.76 353.38 C 574.01 352.37 577.34 352.35 580.74 352.67 C 590.86 353.54 601.00 354.58 610.91 356.76 C 656.04 348.24 701.22 339.91 746.37 331.50 C 759.23 329.89 773.51 332.34 785.01 325.02 C 795.41 320.34 804.99 314.08 815.38 309.39 C 821.55 308.04 828.17 311.13 833.98 307.93 C 852.70 299.95 871.51 292.15 890.26 284.25 Z" />
<path fill="#8d8d8d" d=" M 691.45 278.99 C 712.90 278.92 734.31 281.07 755.74 281.75 C 767.57 282.33 779.36 283.47 791.24 283.25 C 789.28 284.32 787.30 285.37 785.27 286.29 C 763.18 285.80 741.08 285.88 719.01 286.18 C 691.73 288.04 664.31 286.45 636.99 287.03 C 605.08 289.64 572.93 286.38 541.01 288.99 C 519.34 289.04 497.67 288.99 476.00 288.97 C 467.89 288.79 459.80 289.91 451.91 291.72 C 445.20 291.22 438.46 290.63 431.74 291.29 C 423.88 291.49 415.99 288.99 408.18 290.29 C 401.13 293.07 393.77 294.94 386.75 297.81 C 385.07 298.44 383.42 299.13 381.79 299.86 C 368.81 299.93 355.80 300.46 342.85 299.61 C 355.40 296.06 368.61 299.45 381.33 297.32 C 390.01 294.86 398.79 292.69 407.20 289.31 C 416.48 287.22 426.00 290.00 435.32 288.36 C 446.94 286.49 458.50 284.25 470.11 282.26 C 488.75 281.24 507.49 283.05 526.10 281.25 C 554.37 280.13 582.77 282.30 610.99 280.03 C 637.79 279.30 664.76 281.34 691.45 278.99 Z" />
<path fill="#727272" d=" M 142.20 280.21 C 151.62 279.78 161.05 280.07 170.48 279.98 C 177.14 282.40 184.67 280.93 191.59 282.58 C 226.78 287.15 262.03 291.18 297.22 295.75 C 290.20 295.93 283.14 295.72 276.22 297.18 C 273.49 297.56 270.82 298.25 268.22 299.18 C 264.15 298.94 260.20 299.69 256.21 300.29 C 238.41 299.26 220.89 295.53 203.34 292.52 C 193.95 290.97 184.11 286.67 174.58 289.43 C 162.31 291.68 150.09 294.26 137.76 296.17 C 135.20 296.08 132.73 296.80 130.25 297.32 C 100.45 296.16 70.88 290.87 41.00 292.03 C 36.26 291.82 31.40 292.60 26.75 291.38 C 48.36 289.84 70.01 289.17 91.60 287.41 C 108.45 284.85 125.39 282.96 142.20 280.21 Z" />
<path fill="#676767" d=" M 762.31 320.27 C 787.18 308.16 811.38 294.58 836.07 282.16 C 845.67 283.92 855.42 284.60 865.11 285.74 C 873.55 286.93 881.87 284.71 890.26 284.25 C 871.51 292.15 852.70 299.95 833.98 307.93 C 828.17 311.13 821.55 308.04 815.38 309.39 C 804.99 314.08 795.41 320.34 785.01 325.02 C 773.51 332.34 759.23 329.89 746.37 331.50 C 701.22 339.91 656.04 348.24 610.91 356.76 C 601.00 354.58 590.86 353.54 580.74 352.67 C 593.66 351.67 603.65 341.39 616.60 340.48 C 633.09 337.30 649.61 334.38 666.11 331.25 C 685.07 328.40 703.68 322.60 722.99 322.78 C 736.03 320.95 749.45 323.49 762.31 320.27 Z" />
<path fill="#8a8a8a" d=" M 636.99 287.03 C 664.31 286.45 691.73 288.04 719.01 286.18 C 741.08 285.88 763.18 285.80 785.27 286.29 C 777.58 289.92 769.81 293.40 762.24 297.29 C 749.25 294.95 736.02 296.95 723.00 295.18 C 700.01 295.02 676.94 292.43 654.00 294.84 C 625.01 295.70 595.94 293.82 567.01 295.99 C 538.04 295.72 509.03 296.67 480.10 295.37 C 476.44 296.20 472.91 292.32 469.78 295.77 C 469.14 295.76 467.86 295.75 467.22 295.74 C 464.87 295.39 462.54 295.08 460.22 294.80 C 450.77 293.25 441.13 293.06 431.74 291.29 C 438.46 290.63 445.20 291.22 451.91 291.72 C 459.80 289.91 467.89 288.79 476.00 288.97 C 497.67 288.99 519.34 289.04 541.01 288.99 C 572.93 286.38 605.08 289.64 636.99 287.03 Z" />
<path fill="#6f6f6f" d=" M 174.58 289.43 C 184.11 286.67 193.95 290.97 203.34 292.52 C 220.89 295.53 238.41 299.26 256.21 300.29 C 242.82 301.47 229.41 301.86 216.00 300.93 C 195.18 302.49 174.34 300.32 153.59 298.57 C 150.97 298.16 147.88 297.34 145.53 299.06 C 142.79 298.58 140.11 297.68 137.76 296.17 C 150.09 294.26 162.31 291.68 174.58 289.43 Z" />
<path fill="#626262" d=" M 0.00 288.90 C 8.96 289.25 17.79 290.94 26.75 291.38 C 31.40 292.60 36.26 291.82 41.00 292.03 C 70.88 290.87 100.45 296.16 130.25 297.32 C 127.98 298.19 125.66 298.92 123.26 299.29 C 117.64 298.74 112.27 302.00 106.63 300.43 C 92.95 297.34 79.05 295.40 65.11 294.18 C 43.37 301.65 21.67 309.30 0.00 316.99 L 0.00 288.90 Z" />
<path fill="#848484" d=" M 408.18 290.29 C 415.99 288.99 423.88 291.49 431.74 291.29 C 441.13 293.06 450.77 293.25 460.22 294.80 C 443.68 295.35 427.46 291.13 410.98 290.98 C 402.74 292.38 395.25 297.73 386.75 297.81 C 393.77 294.94 401.13 293.07 408.18 290.29 Z" />
<path fill="#7e7e7e" d=" M 386.75 297.81 C 395.25 297.73 402.74 292.38 410.98 290.98 C 427.46 291.13 443.68 295.35 460.22 294.80 C 462.54 295.08 464.87 295.39 467.22 295.74 C 438.77 297.74 410.20 297.69 381.79 299.86 C 383.42 299.13 385.07 298.44 386.75 297.81 Z" />
<path fill="#606060" d=" M 0.00 316.99 C 21.67 309.30 43.37 301.65 65.11 294.18 C 79.05 295.40 92.95 297.34 106.63 300.43 C 112.27 302.00 117.64 298.74 123.26 299.29 C 105.54 304.34 87.46 307.93 69.64 312.57 C 59.40 312.40 49.23 310.77 39.01 310.13 C 25.93 313.30 13.92 321.64 0.00 320.03 L 0.00 316.99 Z" />
<path fill="#888888" d=" M 469.78 295.77 C 472.91 292.32 476.44 296.20 480.10 295.37 C 509.03 296.67 538.04 295.72 567.01 295.99 C 595.94 293.82 625.01 295.70 654.00 294.84 C 676.94 292.43 700.01 295.02 723.00 295.18 C 736.02 296.95 749.25 294.95 762.24 297.29 C 753.16 301.75 743.53 304.91 734.16 308.67 C 691.57 306.33 648.92 305.19 606.31 303.69 C 585.93 301.81 565.38 304.18 544.99 302.23 C 534.18 302.64 523.57 299.50 512.78 300.21 C 506.76 300.23 500.82 299.02 494.81 299.04 C 486.50 297.72 477.95 297.99 469.78 295.77 Z" />
<path fill="#606060" d=" M 297.22 295.75 C 301.09 295.65 304.96 295.47 308.84 295.47 C 311.40 296.60 314.03 297.60 316.75 298.28 C 331.65 304.27 347.23 308.17 362.71 312.27 C 378.01 317.02 393.52 321.18 409.39 323.53 C 438.04 329.78 466.91 334.81 495.90 339.18 C 500.03 339.85 504.18 340.58 508.21 341.79 C 503.52 342.43 498.80 342.81 494.13 343.54 C 480.50 339.64 466.54 336.97 452.61 334.45 C 434.25 330.47 415.87 326.57 397.32 323.64 C 387.80 321.71 378.45 325.44 369.00 325.93 C 361.44 326.00 353.71 326.68 346.34 324.58 C 334.16 319.55 322.33 313.63 309.99 309.02 C 302.56 307.82 294.76 305.75 287.36 308.37 C 273.06 311.21 258.83 314.31 244.62 317.55 C 233.22 320.74 221.48 317.71 209.98 317.06 C 206.54 315.14 204.25 317.55 201.85 319.14 C 185.63 314.15 169.52 308.59 153.74 302.23 C 159.88 301.59 165.22 305.51 171.05 306.88 C 179.29 308.85 187.28 312.77 195.90 312.73 C 212.56 310.88 229.19 308.66 245.69 305.66 C 256.03 303.77 267.42 303.54 276.22 297.18 C 283.14 295.72 290.20 295.93 297.22 295.75 Z" />
<path fill="#5d5d5d" d=" M 130.25 297.32 C 132.73 296.80 135.20 296.08 137.76 296.17 C 140.11 297.68 142.79 298.58 145.53 299.06 C 148.04 300.64 150.86 301.59 153.74 302.23 C 169.52 308.59 185.63 314.15 201.85 319.14 C 209.16 322.80 217.10 325.12 225.06 326.89 C 235.67 327.05 246.30 327.25 256.90 326.81 C 270.43 324.58 283.90 321.99 297.38 319.47 C 301.52 318.74 305.88 318.76 309.94 319.98 C 339.57 326.80 369.22 333.52 398.88 340.21 C 410.23 343.32 420.41 349.47 431.40 353.55 C 439.21 354.85 446.96 352.45 454.69 351.67 C 462.61 350.24 470.88 349.91 478.29 346.43 C 481.25 345.62 484.43 342.82 487.32 345.21 C 482.22 347.07 477.02 348.67 472.13 351.04 C 464.41 351.46 456.87 353.28 449.22 354.21 C 441.79 353.52 434.55 355.54 427.22 356.27 C 419.06 357.12 411.92 352.74 404.35 350.58 C 373.27 338.05 339.59 334.87 307.61 325.49 C 302.17 324.96 296.96 326.97 291.60 327.46 C 269.10 328.57 246.57 329.55 224.02 328.91 C 212.92 325.54 202.26 320.86 191.06 317.81 C 171.72 311.44 151.45 308.80 131.63 304.37 C 129.35 304.54 126.99 302.68 124.70 303.62 C 97.65 310.52 70.79 318.15 43.60 324.48 C 31.23 327.39 18.90 321.16 6.67 323.20 C 5.00 323.14 1.67 323.03 0.00 322.98 L 0.00 320.03 C 13.92 321.64 25.93 313.30 39.01 310.13 C 49.23 310.77 59.40 312.40 69.64 312.57 C 87.46 307.93 105.54 304.34 123.26 299.29 C 125.66 298.92 127.98 298.19 130.25 297.32 Z" />
<path fill="#767676" d=" M 381.79 299.86 C 410.20 297.69 438.77 297.74 467.22 295.74 C 467.86 295.75 469.14 295.76 469.78 295.77 C 477.95 297.99 486.50 297.72 494.81 299.04 C 513.11 302.03 531.60 303.69 549.99 306.05 C 559.20 306.82 566.42 313.17 574.89 316.13 C 581.77 317.80 588.92 317.88 595.87 319.20 C 604.71 323.33 613.71 327.32 623.32 329.30 L 622.84 329.89 C 620.97 330.29 619.11 330.76 617.25 331.17 C 613.19 330.46 609.94 333.54 606.07 333.95 C 596.86 329.71 588.67 323.41 579.11 319.84 C 571.05 317.02 563.75 312.49 556.12 308.84 C 529.72 306.22 503.36 302.61 476.99 299.44 C 459.21 299.48 442.69 307.26 425.27 309.65 C 412.71 308.61 400.55 303.86 387.81 304.74 C 374.86 304.64 362.02 302.56 349.12 301.70 C 342.34 300.81 335.36 301.06 328.73 299.25 C 333.43 298.94 338.15 299.08 342.85 299.61 C 355.80 300.46 368.81 299.93 381.79 299.86 Z" />
<path fill="#636363" d=" M 268.22 299.18 C 270.82 298.25 273.49 297.56 276.22 297.18 C 267.42 303.54 256.03 303.77 245.69 305.66 C 229.19 308.66 212.56 310.88 195.90 312.73 C 187.28 312.77 179.29 308.85 171.05 306.88 C 165.22 305.51 159.88 301.59 153.74 302.23 C 150.86 301.59 148.04 300.64 145.53 299.06 C 164.70 299.86 183.79 302.08 202.91 303.64 C 213.71 302.55 224.59 303.42 235.40 302.57 C 246.29 301.25 257.82 303.47 268.22 299.18 Z" />
<path fill="#6b6b6b" d=" M 145.53 299.06 C 147.88 297.34 150.97 298.16 153.59 298.57 C 174.34 300.32 195.18 302.49 216.00 300.93 C 229.41 301.86 242.82 301.47 256.21 300.29 C 260.20 299.69 264.15 298.94 268.22 299.18 C 257.82 303.47 246.29 301.25 235.40 302.57 C 224.59 303.42 213.71 302.55 202.91 303.64 C 183.79 302.08 164.70 299.86 145.53 299.06 Z" />
<path fill="#717171" d=" M 316.75 298.28 C 320.75 298.36 324.76 298.66 328.73 299.25 C 335.36 301.06 342.34 300.81 349.12 301.70 C 362.02 302.56 374.86 304.64 387.81 304.74 C 411.24 307.75 434.21 313.70 457.70 316.33 C 471.25 318.16 484.33 322.94 497.98 323.95 C 515.63 320.47 533.25 316.36 550.91 313.08 C 567.98 320.45 583.54 332.06 601.99 335.80 C 604.07 335.58 606.13 335.22 608.23 335.17 C 605.62 336.31 602.92 337.23 600.23 338.15 C 596.77 337.64 593.85 339.71 590.67 340.61 C 567.08 340.43 543.99 334.87 521.00 329.99 C 499.66 326.68 478.58 321.76 457.38 317.64 C 442.45 316.62 427.99 312.55 413.22 310.49 C 406.31 309.88 401.08 316.18 394.10 314.82 C 384.48 312.94 374.56 310.37 364.76 311.80 C 364.25 311.92 363.22 312.15 362.71 312.27 C 347.23 308.17 331.65 304.27 316.75 298.28 Z" />
<path fill="#747474" d=" M 425.27 309.65 C 442.69 307.26 459.21 299.48 476.99 299.44 C 503.36 302.61 529.72 306.22 556.12 308.84 C 563.75 312.49 571.05 317.02 579.11 319.84 C 588.67 323.41 596.86 329.71 606.07 333.95 C 609.94 333.54 613.19 330.46 617.25 331.17 C 614.37 332.77 611.27 333.93 608.23 335.17 C 606.13 335.22 604.07 335.58 601.99 335.80 C 583.54 332.06 567.98 320.45 550.91 313.08 C 533.25 316.36 515.63 320.47 497.98 323.95 C 484.33 322.94 471.25 318.16 457.70 316.33 C 434.21 313.70 411.24 307.75 387.81 304.74 C 400.55 303.86 412.71 308.61 425.27 309.65 Z" />
<path fill="#818181" d=" M 494.81 299.04 C 500.82 299.02 506.76 300.23 512.78 300.21 C 557.80 305.40 602.86 310.25 647.90 315.19 C 649.54 315.53 651.03 316.35 652.51 317.13 C 643.12 321.94 632.99 325.09 623.32 329.30 C 613.71 327.32 604.71 323.33 595.87 319.20 C 588.92 317.88 581.77 317.80 574.89 316.13 C 566.42 313.17 559.20 306.82 549.99 306.05 C 531.60 303.69 513.11 302.03 494.81 299.04 Z" />
<path fill="#878787" d=" M 512.78 300.21 C 523.57 299.50 534.18 302.64 544.99 302.23 C 565.38 304.18 585.93 301.81 606.31 303.69 C 648.92 305.19 691.57 306.33 734.16 308.67 C 733.56 308.93 732.36 309.46 731.75 309.72 C 725.01 311.69 717.90 310.78 710.99 311.04 C 694.79 312.05 678.57 312.06 662.39 313.49 C 659.07 314.62 655.92 316.25 652.51 317.13 C 651.03 316.35 649.54 315.53 647.90 315.19 C 602.86 310.25 557.80 305.40 512.78 300.21 Z" />
<path fill="#5b5b5b" d=" M 124.70 303.62 C 126.99 302.68 129.35 304.54 131.63 304.37 C 151.45 308.80 171.72 311.44 191.06 317.81 C 202.26 320.86 212.92 325.54 224.02 328.91 C 246.57 329.55 269.10 328.57 291.60 327.46 C 296.96 326.97 302.17 324.96 307.61 325.49 C 339.59 334.87 373.27 338.05 404.35 350.58 C 411.92 352.74 419.06 357.12 427.22 356.27 C 420.25 357.61 413.15 357.79 406.09 357.86 C 374.73 346.16 341.33 341.37 309.00 333.00 C 297.26 329.03 284.99 332.93 273.01 333.20 C 261.72 334.70 250.27 333.27 238.99 334.87 C 233.84 335.80 228.93 334.09 224.00 333.00 C 212.23 330.27 200.11 329.45 188.37 326.57 C 170.49 323.20 152.39 319.46 134.11 320.24 C 120.50 322.24 106.79 323.56 93.31 326.40 C 88.43 327.71 84.34 331.62 78.98 330.96 C 68.54 330.46 58.21 328.08 47.74 328.11 C 34.00 327.10 20.14 326.24 6.67 323.20 C 18.90 321.16 31.23 327.39 43.60 324.48 C 70.79 318.15 97.65 310.52 124.70 303.62 Z" />
<path fill="#5f5f5f" d=" M 287.36 308.37 C 294.76 305.75 302.56 307.82 309.99 309.02 C 322.33 313.63 334.16 319.55 346.34 324.58 C 353.71 326.68 361.44 326.00 369.00 325.93 C 378.45 325.44 387.80 321.71 397.32 323.64 C 415.87 326.57 434.25 330.47 452.61 334.45 C 466.54 336.97 480.50 339.64 494.13 343.54 C 491.83 343.99 489.58 344.62 487.32 345.21 C 484.43 342.82 481.25 345.62 478.29 346.43 C 470.88 349.91 462.61 350.24 454.69 351.67 C 446.96 352.45 439.21 354.85 431.40 353.55 C 420.41 349.47 410.23 343.32 398.88 340.21 C 369.22 333.52 339.57 326.80 309.94 319.98 C 305.88 318.76 301.52 318.74 297.38 319.47 C 283.90 321.99 270.43 324.58 256.90 326.81 C 246.30 327.25 235.67 327.05 225.06 326.89 C 217.10 325.12 209.16 322.80 201.85 319.14 C 204.25 317.55 206.54 315.14 209.98 317.06 C 221.48 317.71 233.22 320.74 244.62 317.55 C 258.83 314.31 273.06 311.21 287.36 308.37 Z" />
<path fill="#525252" d=" M 1119.25 318.22 C 1132.90 314.65 1146.38 310.47 1160.00 306.76 L 1160.00 308.74 C 1146.09 311.92 1132.62 316.94 1118.90 320.87 C 1078.20 333.41 1037.43 345.79 996.13 356.24 C 982.77 359.21 970.00 365.26 956.10 365.23 C 918.46 369.99 880.59 372.73 843.00 377.88 C 833.95 378.10 824.89 377.81 815.91 378.95 C 816.89 377.62 818.01 376.38 819.12 375.15 C 820.52 373.89 821.84 372.53 823.34 371.37 C 845.47 366.65 868.31 366.41 890.41 361.57 C 923.00 357.13 955.66 353.03 988.35 349.40 C 1000.56 346.58 1012.78 343.76 1025.03 341.04 C 1039.08 337.41 1051.91 329.34 1066.69 328.61 C 1084.47 326.68 1102.20 323.80 1119.25 318.22 Z" />
<path fill="#515151" d=" M 1118.90 320.87 C 1132.62 316.94 1146.09 311.92 1160.00 308.74 L 1160.00 309.73 C 1144.36 314.75 1129.18 321.19 1113.70 326.72 C 1088.89 336.79 1062.97 343.64 1037.80 352.69 C 1021.80 356.86 1005.96 361.64 990.04 366.13 C 977.79 369.45 965.74 373.95 953.01 374.99 C 911.69 378.96 870.45 384.08 828.97 386.00 C 825.51 385.78 823.56 389.24 821.11 391.09 C 813.75 390.19 806.44 392.77 799.14 391.81 C 788.80 387.79 778.66 383.23 768.77 378.23 C 785.56 379.32 802.43 376.91 819.12 375.15 C 818.01 376.38 816.89 377.62 815.91 378.95 C 824.89 377.81 833.95 378.10 843.00 377.88 C 880.59 372.73 918.46 369.99 956.10 365.23 C 970.00 365.26 982.77 359.21 996.13 356.24 C 1037.43 345.79 1078.20 333.41 1118.90 320.87 Z" />
<path fill="#6f6f6f" d=" M 413.22 310.49 C 427.99 312.55 442.45 316.62 457.38 317.64 C 478.58 321.76 499.66 326.68 521.00 329.99 C 543.99 334.87 567.08 340.43 590.67 340.61 C 593.85 339.71 596.77 337.64 600.23 338.15 C 593.52 340.74 586.74 344.90 579.30 343.69 C 556.25 337.98 532.71 334.83 509.59 329.54 C 495.35 326.19 480.81 324.62 466.20 324.36 C 461.02 325.99 455.97 327.92 450.90 329.83 C 442.84 329.15 435.51 325.54 427.92 323.07 C 419.84 319.88 411.06 319.28 402.62 317.56 C 389.86 316.60 377.45 313.13 364.76 311.80 C 374.56 310.37 384.48 312.94 394.10 314.82 C 401.08 316.18 406.31 309.88 413.22 310.49 Z" />
<path fill="#505050" d=" M 1113.70 326.72 C 1129.18 321.19 1144.36 314.75 1160.00 309.73 L 1160.00 334.00 C 1133.45 338.09 1106.73 341.15 1080.20 345.34 C 1045.34 357.38 1010.18 368.45 975.23 380.16 C 968.23 380.62 961.62 383.67 954.60 384.44 C 909.38 387.60 864.18 391.46 818.93 394.00 C 819.59 392.99 820.35 392.04 821.11 391.09 C 823.56 389.24 825.51 385.78 828.97 386.00 C 870.45 384.08 911.69 378.96 953.01 374.99 C 965.74 373.95 977.79 369.45 990.04 366.13 C 1005.96 361.64 1021.80 356.86 1037.80 352.69 C 1062.97 343.64 1088.89 336.79 1113.70 326.72 Z" />
<path fill="#6d6d6d" d=" M 362.71 312.27 C 363.22 312.15 364.25 311.92 364.76 311.80 C 377.45 313.13 389.86 316.60 402.62 317.56 C 411.06 319.28 419.84 319.88 427.92 323.07 C 435.51 325.54 442.84 329.15 450.90 329.83 C 455.97 327.92 461.02 325.99 466.20 324.36 C 480.81 324.62 495.35 326.19 509.59 329.54 C 532.71 334.83 556.25 337.98 579.30 343.69 C 586.74 344.90 593.52 340.74 600.23 338.15 C 602.92 337.23 605.62 336.31 608.23 335.17 C 611.27 333.93 614.37 332.77 617.25 331.17 C 619.11 330.76 620.97 330.29 622.84 329.89 C 621.24 332.15 618.16 332.59 615.85 333.82 C 600.84 339.38 586.08 345.69 570.98 350.98 C 561.09 350.46 551.54 347.35 541.70 346.29 C 540.50 346.06 539.43 346.33 538.47 347.11 C 531.29 345.17 524.71 340.56 517.00 341.06 C 514.07 341.20 511.11 341.59 508.21 341.79 C 504.18 340.58 500.03 339.85 495.90 339.18 C 466.91 334.81 438.04 329.78 409.39 323.53 C 393.52 321.18 378.01 317.02 362.71 312.27 Z" />
<path fill="#545454" d=" M 1028.62 328.59 C 1058.80 324.99 1089.31 323.63 1119.25 318.22 C 1102.20 323.80 1084.47 326.68 1066.69 328.61 C 1051.91 329.34 1039.08 337.41 1025.03 341.04 C 1012.78 343.76 1000.56 346.58 988.35 349.40 C 955.66 353.03 923.00 357.13 890.41 361.57 C 868.31 366.41 845.47 366.65 823.34 371.37 C 821.84 372.53 820.52 373.89 819.12 375.15 C 802.43 376.91 785.56 379.32 768.77 378.23 C 760.92 374.42 752.75 370.01 743.76 370.19 C 740.79 369.09 737.77 368.15 734.76 367.22 C 738.97 367.24 743.21 367.44 747.30 368.66 C 754.90 369.72 762.54 367.91 770.10 367.20 C 797.08 366.83 824.01 364.73 851.00 363.82 C 874.47 361.74 897.72 357.81 921.12 355.18 C 951.30 348.71 981.45 342.05 1011.63 335.56 C 1017.22 333.06 1022.18 328.79 1028.62 328.59 Z" />
<path fill="#585858" d=" M 93.31 326.40 C 106.79 323.56 120.50 322.24 134.11 320.24 C 152.39 319.46 170.49 323.20 188.37 326.57 C 200.11 329.45 212.23 330.27 224.00 333.00 C 228.93 334.09 233.84 335.80 238.99 334.87 C 250.27 333.27 261.72 334.70 273.01 333.20 C 284.99 332.93 297.26 329.03 309.00 333.00 C 341.33 341.37 374.73 346.16 406.09 357.86 C 413.15 357.79 420.25 357.61 427.22 356.27 C 434.55 355.54 441.79 353.52 449.22 354.21 C 436.96 356.71 424.17 356.88 412.14 360.10 C 406.53 360.06 400.96 360.37 395.36 360.51 C 375.36 356.85 356.33 348.88 335.97 347.00 C 325.34 345.48 314.64 344.52 304.00 343.10 C 267.62 343.32 231.31 341.79 195.01 339.87 C 172.85 334.76 150.38 341.82 128.07 340.86 C 122.22 340.82 116.56 337.30 110.77 337.96 C 91.00 334.39 71.02 331.78 51.01 329.99 C 49.56 330.09 48.64 329.04 47.74 328.11 C 58.21 328.08 68.54 330.46 78.98 330.96 C 84.34 331.62 88.43 327.71 93.31 326.40 Z" />
<path fill="#535353" d=" M 0.00 322.98 C 1.67 323.03 5.00 323.14 6.67 323.20 C 20.14 326.24 34.00 327.10 47.74 328.11 C 48.64 329.04 49.56 330.09 51.01 329.99 C 71.02 331.78 91.00 334.39 110.77 337.96 C 126.61 343.26 143.32 345.76 159.62 349.46 C 167.26 351.47 175.24 351.21 183.00 350.16 C 219.50 349.53 255.99 347.99 292.40 345.59 C 300.17 344.14 307.95 345.79 315.69 346.39 C 339.43 347.00 362.51 353.57 385.23 359.84 C 371.12 358.27 357.33 354.25 343.37 351.57 C 331.83 348.62 319.84 349.38 308.13 347.67 C 301.76 346.78 295.32 346.83 289.00 347.95 C 249.69 350.89 210.47 355.51 171.07 356.94 C 155.47 353.20 140.42 347.45 124.60 344.53 C 101.10 342.13 77.48 347.19 54.02 343.92 C 35.98 341.07 17.68 339.64 0.00 334.88 L 0.00 322.98 Z" />
<path fill="#4b4b4b" d=" M 1080.20 345.34 C 1106.73 341.15 1133.45 338.09 1160.00 334.00 L 1160.00 356.90 C 1137.53 359.14 1115.39 364.11 1093.00 367.07 C 1076.13 370.03 1059.17 372.41 1042.33 375.45 C 1003.44 385.20 964.87 396.36 925.59 404.49 C 917.12 405.59 909.66 410.92 901.00 410.87 C 891.96 410.71 883.01 412.36 873.98 412.05 C 869.48 412.03 865.27 409.86 860.75 410.17 C 850.41 407.93 840.56 404.02 830.68 400.35 C 825.16 399.47 819.71 402.13 814.18 401.95 C 813.37 401.37 812.57 400.80 811.78 400.24 C 818.51 400.19 825.28 399.88 831.97 399.06 C 836.03 400.12 839.82 402.19 843.96 403.08 C 852.24 405.01 860.61 402.52 868.98 402.83 C 881.24 399.31 892.96 393.17 906.00 392.98 C 929.17 389.19 953.36 389.72 975.23 380.16 C 1010.18 368.45 1045.34 357.38 1080.20 345.34 Z" />
<path fill="#515151" d=" M 0.00 334.88 C 17.68 339.64 35.98 341.07 54.02 343.92 C 77.48 347.19 101.10 342.13 124.60 344.53 C 140.42 347.45 155.47 353.20 171.07 356.94 C 210.47 355.51 249.69 350.89 289.00 347.95 C 295.32 346.83 301.76 346.78 308.13 347.67 C 319.84 349.38 331.83 348.62 343.37 351.57 C 357.33 354.25 371.12 358.27 385.23 359.84 C 393.86 362.58 403.53 363.01 412.14 360.10 C 424.17 356.88 436.96 356.71 449.22 354.21 C 456.87 353.28 464.41 351.46 472.13 351.04 C 469.86 352.19 467.47 353.05 465.15 354.07 C 454.15 354.29 444.45 360.34 433.62 361.46 C 425.02 362.24 416.59 364.22 407.99 364.94 C 401.27 365.33 394.73 363.54 388.11 362.81 C 368.49 359.17 348.76 356.18 329.11 352.76 C 310.07 348.94 289.89 346.83 270.91 351.89 C 243.59 365.80 211.95 368.05 181.99 363.95 C 159.65 359.93 136.98 358.23 114.59 354.54 C 84.31 349.85 53.89 346.09 23.58 341.56 C 15.63 340.45 7.95 337.89 0.00 336.80 L 0.00 334.88 Z" />
<path fill="#4e4e4e" d=" M 0.00 336.80 C 7.95 337.89 15.63 340.45 23.58 341.56 C 53.89 346.09 84.31 349.85 114.59 354.54 C 136.98 358.23 159.65 359.93 181.99 363.95 C 211.95 368.05 243.59 365.80 270.91 351.89 C 289.89 346.83 310.07 348.94 329.11 352.76 C 348.76 356.18 368.49 359.17 388.11 362.81 C 394.73 363.54 401.27 365.33 407.99 364.94 C 416.59 364.22 425.02 362.24 433.62 361.46 C 444.45 360.34 454.15 354.29 465.15 354.07 C 448.82 360.27 432.14 365.54 415.77 371.66 C 411.48 373.14 406.88 374.65 402.30 373.68 C 369.10 367.16 335.86 360.82 302.63 354.43 C 294.28 352.30 285.65 352.35 277.16 351.31 C 262.57 356.68 248.43 363.20 234.01 369.00 C 222.29 371.01 210.19 370.74 198.29 371.30 C 189.82 372.47 181.47 369.78 173.11 368.81 C 124.49 363.11 75.68 359.21 27.02 353.92 C 20.64 353.76 14.08 350.89 7.75 352.66 C 5.16 352.47 2.58 352.15 0.00 351.95 L 0.00 336.80 Z" />
<path fill="#555555" d=" M 110.77 337.96 C 116.56 337.30 122.22 340.82 128.07 340.86 C 150.38 341.82 172.85 334.76 195.01 339.87 C 231.31 341.79 267.62 343.32 304.00 343.10 C 314.64 344.52 325.34 345.48 335.97 347.00 C 356.33 348.88 375.36 356.85 395.36 360.51 C 400.96 360.37 406.53 360.06 412.14 360.10 C 403.53 363.01 393.86 362.58 385.23 359.84 C 362.51 353.57 339.43 347.00 315.69 346.39 C 307.95 345.79 300.17 344.14 292.40 345.59 C 255.99 347.99 219.50 349.53 183.00 350.16 C 175.24 351.21 167.26 351.47 159.62 349.46 C 143.32 345.76 126.61 343.26 110.77 337.96 Z" />
<path fill="#4c4c4c" d=" M 508.21 341.79 C 511.11 341.59 514.07 341.20 517.00 341.06 C 524.71 340.56 531.29 345.17 538.47 347.11 C 540.50 347.98 542.59 348.72 544.75 349.22 C 556.07 354.18 568.29 357.05 579.27 362.76 C 566.65 362.85 555.38 356.20 543.71 352.25 C 538.02 349.13 531.42 350.77 525.30 351.30 C 512.58 352.30 500.40 356.27 488.00 359.01 C 464.00 364.00 441.49 374.00 418.13 381.19 C 405.79 385.88 393.16 379.30 380.77 378.62 C 353.84 372.75 327.16 364.86 299.60 362.55 C 288.36 362.48 277.31 359.57 266.08 360.10 C 254.48 364.17 244.21 371.75 231.94 374.01 C 224.14 376.34 215.98 377.10 208.00 378.59 C 189.10 377.21 170.16 376.43 151.30 374.64 C 138.82 372.49 126.52 369.40 114.12 366.83 C 78.67 362.08 43.20 357.40 7.75 352.66 C 14.08 350.89 20.64 353.76 27.02 353.92 C 75.68 359.21 124.49 363.11 173.11 368.81 C 181.47 369.78 189.82 372.47 198.29 371.30 C 210.19 370.74 222.29 371.01 234.01 369.00 C 248.43 363.20 262.57 356.68 277.16 351.31 C 285.65 352.35 294.28 352.30 302.63 354.43 C 335.86 360.82 369.10 367.16 402.30 373.68 C 406.88 374.65 411.48 373.14 415.77 371.66 C 432.14 365.54 448.82 360.27 465.15 354.07 C 467.47 353.05 469.86 352.19 472.13 351.04 C 477.02 348.67 482.22 347.07 487.32 345.21 C 489.58 344.62 491.83 343.99 494.13 343.54 C 498.80 342.81 503.52 342.43 508.21 341.79 Z" />
<path fill="#606060" d=" M 544.75 349.22 C 553.53 349.61 562.07 352.15 570.76 353.38 C 584.98 355.43 599.84 355.27 613.51 360.02 C 608.32 362.35 603.05 365.60 597.27 365.85 C 591.13 365.36 584.96 365.34 579.27 362.76 C 568.29 357.05 556.07 354.18 544.75 349.22 Z" />
<path fill="#4a4a4a" d=" M 525.30 351.30 C 531.42 350.77 538.02 349.13 543.71 352.25 C 555.38 356.20 566.65 362.85 579.27 362.76 C 584.96 365.34 591.13 365.36 597.27 365.85 C 592.21 369.13 586.07 368.94 580.30 369.40 C 547.24 376.84 514.43 385.40 481.32 392.53 C 471.88 391.42 462.61 389.19 453.01 389.83 C 441.19 387.60 428.81 390.81 417.18 387.92 C 405.30 383.90 392.49 382.96 380.77 378.62 C 393.16 379.30 405.79 385.88 418.13 381.19 C 441.49 374.00 464.00 364.00 488.00 359.01 C 500.40 356.27 512.58 352.30 525.30 351.30 Z" />
<path fill="#494949" d=" M 0.00 351.95 C 2.58 352.15 5.16 352.47 7.75 352.66 C 43.20 357.40 78.67 362.08 114.12 366.83 C 126.52 369.40 138.82 372.49 151.30 374.64 C 170.16 376.43 189.10 377.21 208.00 378.59 C 215.98 377.10 224.14 376.34 231.94 374.01 C 244.21 371.75 254.48 364.17 266.08 360.10 C 277.31 359.57 288.36 362.48 299.60 362.55 C 327.16 364.86 353.84 372.75 380.77 378.62 C 392.49 382.96 405.30 383.90 417.18 387.92 C 415.46 387.82 412.03 387.63 410.32 387.53 C 384.55 381.25 358.77 375.04 332.92 369.11 C 326.76 367.90 321.09 370.89 315.33 372.38 C 303.70 376.53 291.34 378.60 280.28 384.25 C 268.97 390.22 256.20 384.16 244.30 383.73 C 234.02 384.12 224.00 380.94 213.74 381.26 C 190.55 379.33 167.27 377.88 144.21 374.78 C 122.26 369.15 99.73 366.62 77.31 363.67 C 51.54 360.43 25.87 356.27 0.00 353.91 L 0.00 351.95 Z" />
<path fill="#434343" d=" M 0.00 353.91 C 25.87 356.27 51.54 360.43 77.31 363.67 C 99.73 366.62 122.26 369.15 144.21 374.78 C 96.09 371.16 48.02 366.69 0.00 361.94 L 0.00 353.91 Z" />
<path fill="#4a4a4a" d=" M 1093.00 367.07 C 1115.39 364.11 1137.53 359.14 1160.00 356.90 L 1160.00 384.87 C 1135.01 391.94 1110.30 400.25 1084.61 404.51 C 1068.19 406.99 1051.92 410.37 1035.63 413.55 C 993.60 414.93 951.61 416.79 909.60 418.44 C 898.89 419.94 888.18 418.81 877.76 416.28 C 871.99 414.55 866.07 413.03 860.75 410.17 C 865.27 409.86 869.48 412.03 873.98 412.05 C 883.01 412.36 891.96 410.71 901.00 410.87 C 909.66 410.92 917.12 405.59 925.59 404.49 C 964.87 396.36 1003.44 385.20 1042.33 375.45 C 1059.17 372.41 1076.13 370.03 1093.00 367.07 Z" />
<path fill="#474747" d=" M 613.51 360.02 C 621.88 357.86 630.68 359.42 639.22 359.16 C 625.47 362.71 610.62 362.19 597.71 368.74 C 579.46 374.55 561.83 382.04 543.93 388.81 C 530.53 392.36 518.11 401.34 503.57 398.58 C 495.18 397.86 487.22 393.79 478.74 394.22 C 451.36 387.74 422.87 390.75 395.00 390.02 C 361.73 388.23 328.34 389.12 295.01 389.14 C 283.97 391.08 272.92 388.69 262.01 387.20 C 261.44 387.32 260.32 387.56 259.75 387.68 C 244.41 385.63 228.95 384.11 213.74 381.26 C 224.00 380.94 234.02 384.12 244.30 383.73 C 256.20 384.16 268.97 390.22 280.28 384.25 C 291.34 378.60 303.70 376.53 315.33 372.38 C 321.09 370.89 326.76 367.90 332.92 369.11 C 358.77 375.04 384.55 381.25 410.32 387.53 C 412.03 387.63 415.46 387.82 417.18 387.92 C 428.81 390.81 441.19 387.60 453.01 389.83 C 462.61 389.19 471.88 391.42 481.32 392.53 C 514.43 385.40 547.24 376.84 580.30 369.40 C 586.07 368.94 592.21 369.13 597.27 365.85 C 603.05 365.60 608.32 362.35 613.51 360.02 Z" />
<path fill="#454545" d=" M 639.22 359.16 C 651.05 359.82 662.89 360.44 674.77 359.87 C 677.77 359.94 680.69 359.88 683.75 359.87 C 695.47 359.99 707.39 359.72 718.87 362.55 C 724.15 364.15 729.42 365.79 734.76 367.22 C 737.77 368.15 740.79 369.09 743.76 370.19 C 750.88 372.64 758.31 374.39 765.01 377.99 C 780.26 386.15 796.44 392.25 811.78 400.24 C 812.57 400.80 813.37 401.37 814.18 401.95 C 805.70 401.07 798.75 395.05 790.96 392.05 C 779.88 387.78 769.12 382.55 757.63 379.46 C 746.65 379.45 735.87 381.86 724.99 383.07 C 687.65 388.00 650.32 393.04 612.97 397.97 C 592.83 401.01 572.38 402.50 552.59 407.47 C 542.09 409.55 532.27 403.35 521.78 404.18 C 507.60 400.13 492.84 398.52 478.74 394.22 C 487.22 393.79 495.18 397.86 503.57 398.58 C 518.11 401.34 530.53 392.36 543.93 388.81 C 561.83 382.04 579.46 374.55 597.71 368.74 C 610.62 362.19 625.47 362.71 639.22 359.16 Z" />
<path fill="#3d3d3d" d=" M 0.00 361.94 C 48.02 366.69 96.09 371.16 144.21 374.78 C 167.27 377.88 190.55 379.33 213.74 381.26 C 228.95 384.11 244.41 385.63 259.75 387.68 C 266.60 390.01 273.98 389.38 280.97 390.96 L 281.02 391.98 C 273.96 392.36 267.07 390.62 260.11 389.81 C 246.39 388.06 232.71 386.10 218.99 384.41 C 207.37 386.11 195.72 387.85 184.00 388.78 C 169.39 387.21 154.67 388.46 140.01 387.87 C 126.08 386.08 112.00 387.56 98.01 386.82 C 76.78 385.08 55.39 386.83 34.19 384.70 C 25.44 381.98 16.96 378.18 8.05 376.05 C 4.92 377.66 2.79 381.04 0.00 383.32 L 0.00 361.94 Z" />
<path fill="#4e4e4e" d=" M 743.76 370.19 C 752.75 370.01 760.92 374.42 768.77 378.23 C 778.66 383.23 788.80 387.79 799.14 391.81 C 806.44 392.77 813.75 390.19 821.11 391.09 C 820.35 392.04 819.59 392.99 818.93 394.00 C 864.18 391.46 909.38 387.60 954.60 384.44 C 961.62 383.67 968.23 380.62 975.23 380.16 C 953.36 389.72 929.17 389.19 906.00 392.98 C 892.96 393.17 881.24 399.31 868.98 402.83 C 860.61 402.52 852.24 405.01 843.96 403.08 C 839.82 402.19 836.03 400.12 831.97 399.06 C 825.28 399.88 818.51 400.19 811.78 400.24 C 796.44 392.25 780.26 386.15 765.01 377.99 C 758.31 374.39 750.88 372.64 743.76 370.19 Z" />
<path fill="#3c3c3c" d=" M 0.00 383.32 C 2.79 381.04 4.92 377.66 8.05 376.05 C 16.96 378.18 25.44 381.98 34.19 384.70 C 55.39 386.83 76.78 385.08 98.01 386.82 C 112.00 387.56 126.08 386.08 140.01 387.87 C 154.67 388.46 169.39 387.21 184.00 388.78 C 195.72 387.85 207.37 386.11 218.99 384.41 C 232.71 386.10 246.39 388.06 260.11 389.81 C 267.07 390.62 273.96 392.36 281.02 391.98 C 290.43 391.26 299.70 392.77 308.96 394.13 C 327.18 399.98 344.85 407.60 363.30 412.71 C 366.14 413.84 369.04 414.83 371.85 416.05 C 390.35 423.55 409.94 427.82 428.78 434.33 C 435.38 435.55 441.75 437.58 448.04 439.92 C 457.17 442.73 466.60 444.96 475.27 449.05 L 474.72 450.19 C 421.84 433.64 368.70 417.81 316.72 398.42 C 307.06 394.48 296.42 393.69 286.10 393.28 C 232.55 401.33 179.37 412.56 125.20 415.69 C 91.76 404.84 58.15 394.43 24.77 383.32 C 16.36 382.86 8.22 385.76 0.00 387.17 L 0.00 383.32 Z" />
<path fill="#444444" d=" M 724.99 383.07 C 735.87 381.86 746.65 379.45 757.63 379.46 C 769.12 382.55 779.88 387.78 790.96 392.05 C 798.75 395.05 805.70 401.07 814.18 401.95 C 819.71 402.13 825.16 399.47 830.68 400.35 C 840.56 404.02 850.41 407.93 860.75 410.17 C 866.07 413.03 871.99 414.55 877.76 416.28 C 886.22 419.78 894.96 422.70 903.78 425.20 C 904.91 425.76 906.06 426.32 907.21 426.91 C 905.40 426.86 903.59 426.77 901.90 426.13 C 879.41 419.39 857.47 410.99 835.12 403.81 C 828.28 400.23 820.78 403.96 813.62 403.72 C 798.39 402.64 783.38 405.89 768.30 407.34 C 749.06 410.97 730.03 415.71 710.88 419.81 C 684.81 426.64 657.53 422.34 630.99 424.87 C 614.91 426.59 599.89 419.31 584.11 417.78 C 563.33 413.21 542.47 409.05 521.78 404.18 C 532.27 403.35 542.09 409.55 552.59 407.47 C 572.38 402.50 592.83 401.01 612.97 397.97 C 650.32 393.04 687.65 388.00 724.99 383.07 Z" />
<path fill="#3b3b3b" d=" M 0.00 387.17 C 8.22 385.76 16.36 382.86 24.77 383.32 C 58.15 394.43 91.76 404.84 125.20 415.69 C 179.37 412.56 232.55 401.33 286.10 393.28 C 296.42 393.69 307.06 394.48 316.72 398.42 C 368.70 417.81 421.84 433.64 474.72 450.19 C 488.22 454.19 501.68 458.30 514.96 462.96 C 526.46 464.88 537.12 469.71 548.40 472.50 C 553.89 473.24 559.45 472.79 564.99 473.15 C 582.13 475.15 599.44 473.05 616.62 474.47 C 635.38 475.96 654.26 473.90 673.00 475.82 C 686.56 476.44 700.14 475.45 713.70 476.37 C 731.41 478.17 749.31 475.68 767.00 477.84 C 779.88 478.14 792.89 478.51 805.69 476.56 C 808.62 475.81 811.44 477.11 814.38 477.49 C 854.15 479.31 893.91 480.26 933.70 481.37 C 978.18 484.47 1022.63 479.75 1067.03 477.13 C 1098.05 471.90 1129.00 466.14 1160.00 460.83 L 1160.00 464.13 C 1157.72 464.55 1155.46 464.93 1153.23 465.26 C 1146.45 464.03 1139.92 466.13 1133.36 467.36 C 1111.22 471.08 1089.33 476.41 1067.00 478.84 C 1005.32 482.35 943.67 486.31 882.01 490.00 C 809.04 488.47 736.09 485.82 663.10 484.75 C 646.11 483.28 629.01 484.51 612.01 483.02 C 588.69 484.05 565.50 480.84 542.68 476.37 C 482.67 459.07 422.61 441.94 362.34 425.58 C 356.52 423.45 350.71 421.31 344.89 419.19 C 320.30 420.52 295.70 422.01 271.10 423.23 C 239.59 425.37 208.40 430.70 177.01 433.95 C 164.77 431.62 152.94 427.54 140.99 424.07 C 110.28 416.02 79.93 406.54 49.04 399.26 C 32.67 402.02 16.27 404.76 0.00 408.04 L 0.00 387.17 Z" />
<path fill="#484848" d=" M 1084.61 404.51 C 1110.30 400.25 1135.01 391.94 1160.00 384.87 L 1160.00 386.76 C 1156.70 387.02 1153.65 388.28 1150.65 389.56 C 1128.63 396.15 1106.50 402.31 1084.35 408.46 C 1069.32 412.95 1054.28 417.48 1039.01 421.08 C 1030.20 423.19 1021.70 426.72 1012.61 427.46 C 990.12 429.07 967.58 427.40 945.10 426.77 C 931.37 425.15 917.51 426.73 903.78 425.20 C 894.96 422.70 886.22 419.78 877.76 416.28 C 888.18 418.81 898.89 419.94 909.60 418.44 C 951.61 416.79 993.60 414.93 1035.63 413.55 C 1051.92 410.37 1068.19 406.99 1084.61 404.51 Z" />
<path fill="#414141" d=" M 259.75 387.68 C 260.32 387.56 261.44 387.32 262.01 387.20 C 272.92 388.69 283.97 391.08 295.01 389.14 C 328.34 389.12 361.73 388.23 395.00 390.02 C 422.87 390.75 451.36 387.74 478.74 394.22 C 492.84 398.52 507.60 400.13 521.78 404.18 C 542.47 409.05 563.33 413.21 584.11 417.78 C 599.89 419.31 614.91 426.59 630.99 424.87 C 657.53 422.34 684.81 426.64 710.88 419.81 C 730.03 415.71 749.06 410.97 768.30 407.34 C 783.38 405.89 798.39 402.64 813.62 403.72 C 820.78 403.96 828.28 400.23 835.12 403.81 C 857.47 410.99 879.41 419.39 901.90 426.13 C 903.59 426.77 905.40 426.86 907.21 426.91 C 917.02 429.87 926.71 433.25 936.79 435.21 C 952.05 438.89 967.53 441.52 983.00 443.97 C 1035.66 441.59 1088.36 440.48 1141.00 437.20 C 1147.26 436.45 1153.90 438.06 1160.00 435.96 L 1160.00 443.75 C 1154.34 445.58 1149.14 449.23 1142.99 448.97 C 1111.54 450.79 1080.06 451.88 1048.60 453.40 C 1036.67 453.83 1024.49 456.06 1012.88 452.19 C 1001.19 450.94 989.91 447.50 978.33 445.55 C 955.71 440.44 932.86 436.28 910.37 430.59 C 885.01 425.66 859.53 421.35 834.12 416.75 C 830.07 416.09 825.92 415.39 821.98 416.96 C 809.93 420.03 798.09 423.87 786.09 427.10 C 768.83 431.12 751.40 434.31 734.12 438.20 C 728.17 439.34 722.23 441.31 716.11 440.83 C 703.58 439.29 691.11 437.29 678.60 435.59 C 664.73 435.00 651.03 432.64 637.31 430.63 C 623.04 427.09 608.25 426.60 594.00 423.00 C 556.87 415.14 519.72 407.39 482.61 399.46 C 476.22 397.66 469.52 398.15 462.99 397.89 C 455.02 397.73 447.05 396.27 439.10 397.18 C 412.43 403.14 385.62 410.20 358.10 409.84 C 343.02 404.77 328.12 399.12 313.10 393.89 C 302.50 392.02 291.77 390.52 280.97 390.96 C 273.98 389.38 266.60 390.01 259.75 387.68 Z" />
<path fill="#454545" d=" M 1150.65 389.56 C 1153.65 388.28 1156.70 387.02 1160.00 386.76 L 1160.00 415.81 C 1152.62 418.62 1144.98 420.89 1136.98 420.12 C 1085.64 423.79 1034.41 428.87 983.12 433.30 C 967.71 434.46 952.25 437.23 936.79 435.21 C 926.71 433.25 917.02 429.87 907.21 426.91 C 906.06 426.32 904.91 425.76 903.78 425.20 C 917.51 426.73 931.37 425.15 945.10 426.77 C 967.58 427.40 990.12 429.07 1012.61 427.46 C 1021.70 426.72 1030.20 423.19 1039.01 421.08 C 1054.28 417.48 1069.32 412.95 1084.35 408.46 C 1106.50 402.31 1128.63 396.15 1150.65 389.56 Z" />
<path fill="#404040" d=" M 280.97 390.96 C 291.77 390.52 302.50 392.02 313.10 393.89 C 328.12 399.12 343.02 404.77 358.10 409.84 C 385.62 410.20 412.43 403.14 439.10 397.18 C 447.05 396.27 455.02 397.73 462.99 397.89 C 469.52 398.15 476.22 397.66 482.61 399.46 C 519.72 407.39 556.87 415.14 594.00 423.00 C 608.25 426.60 623.04 427.09 637.31 430.63 C 651.03 432.64 664.73 435.00 678.60 435.59 C 691.11 437.29 703.58 439.29 716.11 440.83 C 722.23 441.31 728.17 439.34 734.12 438.20 C 751.40 434.31 768.83 431.12 786.09 427.10 C 798.09 423.87 809.93 420.03 821.98 416.96 C 825.92 415.39 830.07 416.09 834.12 416.75 C 859.53 421.35 885.01 425.66 910.37 430.59 C 932.86 436.28 955.71 440.44 978.33 445.55 C 989.91 447.50 1001.19 450.94 1012.88 452.19 C 1024.49 456.06 1036.67 453.83 1048.60 453.40 C 1080.06 451.88 1111.54 450.79 1142.99 448.97 C 1149.14 449.23 1154.34 445.58 1160.00 443.75 L 1160.00 454.94 C 1144.02 455.30 1128.06 456.95 1112.10 456.77 C 1078.80 454.42 1045.28 457.71 1012.01 455.00 C 991.70 454.81 971.38 455.31 951.09 454.81 C 911.28 447.57 871.40 440.72 831.59 433.49 C 824.33 430.51 817.27 434.86 810.31 436.34 C 796.49 440.08 782.88 444.61 768.93 447.81 C 754.20 447.83 739.15 451.03 724.61 447.49 C 687.93 441.22 651.27 434.79 614.59 428.54 C 584.46 423.26 554.34 417.88 523.99 413.95 C 506.78 412.27 489.61 403.51 472.37 409.41 C 450.79 414.15 429.22 418.94 407.62 423.56 C 394.92 426.03 384.10 417.05 371.85 416.05 C 369.04 414.83 366.14 413.84 363.30 412.71 C 344.85 407.60 327.18 399.98 308.96 394.13 C 299.70 392.77 290.43 391.26 281.02 391.98 L 280.97 390.96 Z" />
<path fill="#3a3a3a" d=" M 0.00 408.04 C 16.27 404.76 32.67 402.02 49.04 399.26 C 79.93 406.54 110.28 416.02 140.99 424.07 C 152.94 427.54 164.77 431.62 177.01 433.95 C 208.40 430.70 239.59 425.37 271.10 423.23 C 295.70 422.01 320.30 420.52 344.89 419.19 C 350.71 421.31 356.52 423.45 362.34 425.58 C 422.61 441.94 482.67 459.07 542.68 476.37 C 565.50 480.84 588.69 484.05 612.01 483.02 C 629.01 484.51 646.11 483.28 663.10 484.75 C 736.09 485.82 809.04 488.47 882.01 490.00 C 943.67 486.31 1005.32 482.35 1067.00 478.84 C 1089.33 476.41 1111.22 471.08 1133.36 467.36 C 1139.92 466.13 1146.45 464.03 1153.23 465.26 C 1128.59 470.10 1103.89 474.71 1079.21 479.25 C 1073.13 479.25 1067.22 480.67 1061.22 481.22 C 1030.49 481.78 999.82 485.07 969.09 486.22 C 958.48 488.00 947.73 488.11 937.01 488.24 C 911.78 491.22 886.31 491.72 860.99 493.83 C 837.63 494.33 814.55 499.96 791.11 497.69 C 776.45 495.98 761.63 498.12 747.00 496.16 C 704.00 495.34 661.05 494.36 618.10 492.81 C 559.58 483.80 501.11 474.51 442.58 465.56 C 425.61 463.29 409.91 455.30 393.00 453.03 C 370.64 453.32 348.43 457.92 326.01 456.87 C 313.73 455.35 301.31 456.42 289.00 455.21 C 274.32 455.80 259.69 457.78 245.03 457.91 C 224.92 451.12 204.85 444.20 184.82 437.20 C 179.18 434.60 172.73 435.44 166.98 433.11 C 147.65 428.33 128.04 424.80 108.61 420.47 C 103.49 419.49 98.38 417.83 93.10 418.18 C 62.03 423.27 31.02 428.88 0.00 434.17 L 0.00 408.04 Z" />
<path fill="#3f3f3f" d=" M 472.37 409.41 C 489.61 403.51 506.78 412.27 523.99 413.95 C 554.34 417.88 584.46 423.26 614.59 428.54 C 651.27 434.79 687.93 441.22 724.61 447.49 C 739.15 451.03 754.20 447.83 768.93 447.81 C 782.88 444.61 796.49 440.08 810.31 436.34 C 817.27 434.86 824.33 430.51 831.59 433.49 C 871.40 440.72 911.28 447.57 951.09 454.81 C 971.38 455.31 991.70 454.81 1012.01 455.00 C 1045.28 457.71 1078.80 454.42 1112.10 456.77 C 1128.06 456.95 1144.02 455.30 1160.00 454.94 L 1160.00 457.91 C 1142.62 458.37 1125.46 464.35 1108.00 461.16 C 1091.29 461.43 1074.70 459.65 1058.01 459.86 C 1046.06 458.09 1033.94 459.93 1022.00 458.15 C 987.29 457.70 952.67 455.54 917.98 454.90 C 895.08 452.83 872.03 454.75 849.09 453.81 C 841.24 452.53 833.45 450.91 825.63 449.48 C 819.84 448.55 814.73 452.16 809.01 452.03 C 784.69 453.77 760.33 454.61 736.01 456.27 C 728.38 457.53 720.85 454.36 713.31 453.61 C 666.34 445.45 619.31 437.62 572.31 429.61 C 550.99 426.09 529.69 421.35 508.01 421.05 C 501.45 422.50 495.13 424.91 488.60 426.50 C 478.90 427.73 469.08 426.25 459.39 427.52 C 449.14 429.53 439.20 433.23 428.78 434.33 C 409.94 427.82 390.35 423.55 371.85 416.05 C 384.10 417.05 394.92 426.03 407.62 423.56 C 429.22 418.94 450.79 414.15 472.37 409.41 Z" />
<path fill="#434343" d=" M 1136.98 420.12 C 1144.98 420.89 1152.62 418.62 1160.00 415.81 L 1160.00 435.96 C 1153.90 438.06 1147.26 436.45 1141.00 437.20 C 1088.36 440.48 1035.66 441.59 983.00 443.97 C 967.53 441.52 952.05 438.89 936.79 435.21 C 952.25 437.23 967.71 434.46 983.12 433.30 C 1034.41 428.87 1085.64 423.79 1136.98 420.12 Z" />
<path fill="#393939" d=" M 0.00 434.17 C 31.02 428.88 62.03 423.27 93.10 418.18 C 98.38 417.83 103.49 419.49 108.61 420.47 C 128.04 424.80 147.65 428.33 166.98 433.11 C 172.73 435.44 179.18 434.60 184.82 437.20 C 204.85 444.20 224.92 451.12 245.03 457.91 C 259.69 457.78 274.32 455.80 289.00 455.21 C 301.31 456.42 313.73 455.35 326.01 456.87 C 348.43 457.92 370.64 453.32 393.00 453.03 C 409.91 455.30 425.61 463.29 442.58 465.56 C 501.11 474.51 559.58 483.80 618.10 492.81 C 661.05 494.36 704.00 495.34 747.00 496.16 C 761.63 498.12 776.45 495.98 791.11 497.69 C 814.55 499.96 837.63 494.33 860.99 493.83 C 886.31 491.72 911.78 491.22 937.01 488.24 C 947.73 488.11 958.48 488.00 969.09 486.22 C 999.82 485.07 1030.49 481.78 1061.22 481.22 C 1049.35 483.36 1037.59 486.16 1025.59 487.44 C 1008.87 490.18 991.89 490.19 975.11 492.22 C 939.18 496.36 903.24 500.33 867.31 504.32 C 844.85 507.08 822.26 509.51 799.62 507.47 C 727.16 505.52 654.68 504.43 582.30 499.70 C 550.22 496.34 518.51 490.12 486.59 485.54 C 465.76 482.30 444.94 478.98 424.11 475.79 C 405.84 473.30 387.36 473.53 369.00 472.21 C 345.65 472.92 322.36 477.69 299.01 475.01 C 289.72 474.81 279.74 476.19 271.10 471.86 C 247.92 463.11 224.80 454.17 201.59 445.48 C 191.42 444.14 181.22 446.20 171.10 447.20 C 138.74 452.75 106.25 457.65 74.01 463.79 C 64.01 462.35 53.81 463.84 43.85 462.27 C 29.12 462.06 14.66 458.98 0.00 457.88 L 0.00 434.17 Z" />
<path fill="#3e3e3e" d=" M 488.60 426.50 C 495.13 424.91 501.45 422.50 508.01 421.05 C 529.69 421.35 550.99 426.09 572.31 429.61 C 619.31 437.62 666.34 445.45 713.31 453.61 C 720.85 454.36 728.38 457.53 736.01 456.27 C 760.33 454.61 784.69 453.77 809.01 452.03 C 814.73 452.16 819.84 448.55 825.63 449.48 C 833.45 450.91 841.24 452.53 849.09 453.81 C 872.03 454.75 895.08 452.83 917.98 454.90 C 952.67 455.54 987.29 457.70 1022.00 458.15 C 1033.94 459.93 1046.06 458.09 1058.01 459.86 C 1074.70 459.65 1091.29 461.43 1108.00 461.16 C 1125.46 464.35 1142.62 458.37 1160.00 457.91 L 1160.00 458.90 C 1149.27 460.29 1138.40 461.11 1127.91 463.83 C 1114.48 464.44 1101.36 467.80 1087.97 468.88 C 1059.03 467.55 1030.07 466.59 1001.10 465.78 C 989.45 464.09 977.63 465.92 966.00 464.15 C 916.57 463.91 867.30 459.35 818.01 455.98 C 786.99 457.29 756.07 460.68 725.10 462.80 C 692.50 457.81 659.87 452.93 627.31 447.66 C 606.44 444.41 585.72 439.96 564.62 438.47 C 552.83 437.97 541.19 435.44 529.39 435.51 C 514.89 439.61 500.39 443.71 485.91 447.89 C 482.47 448.97 478.83 448.91 475.27 449.05 C 466.60 444.96 457.17 442.73 448.04 439.92 C 441.75 437.58 435.38 435.55 428.78 434.33 C 439.20 433.23 449.14 429.53 459.39 427.52 C 469.08 426.25 478.90 427.73 488.60 426.50 Z" />
<path fill="#3d3d3d" d=" M 529.39 435.51 C 541.19 435.44 552.83 437.97 564.62 438.47 C 585.72 439.96 606.44 444.41 627.31 447.66 C 659.87 452.93 692.50 457.81 725.10 462.80 C 756.07 460.68 786.99 457.29 818.01 455.98 C 867.30 459.35 916.57 463.91 966.00 464.15 C 977.63 465.92 989.45 464.09 1001.10 465.78 C 1030.07 466.59 1059.03 467.55 1087.97 468.88 C 1101.36 467.80 1114.48 464.44 1127.91 463.83 C 1106.89 468.51 1085.34 470.58 1064.11 474.23 C 1033.91 477.06 1003.77 472.14 973.60 471.61 C 921.84 469.94 870.06 468.03 818.30 466.67 C 807.93 464.79 797.67 461.24 787.01 462.10 C 764.47 464.53 741.96 467.62 719.31 468.66 C 708.83 467.41 698.50 465.12 688.00 464.10 C 677.00 464.00 665.94 463.43 655.00 464.84 C 634.67 465.41 614.29 464.24 594.01 466.02 C 577.34 465.56 560.69 464.48 544.00 465.03 C 521.41 466.80 500.98 455.75 479.69 450.36 C 478.06 449.98 476.37 450.15 474.72 450.19 L 475.27 449.05 C 478.83 448.91 482.47 448.97 485.91 447.89 C 500.39 443.71 514.89 439.61 529.39 435.51 Z" />
<path fill="#383838" d=" M 171.10 447.20 C 181.22 446.20 191.42 444.14 201.59 445.48 C 224.80 454.17 247.92 463.11 271.10 471.86 C 279.74 476.19 289.72 474.81 299.01 475.01 C 322.36 477.69 345.65 472.92 369.00 472.21 C 387.36 473.53 405.84 473.30 424.11 475.79 C 444.94 478.98 465.76 482.30 486.59 485.54 C 518.51 490.12 550.22 496.34 582.30 499.70 C 654.68 504.43 727.16 505.52 799.62 507.47 C 822.26 509.51 844.85 507.08 867.31 504.32 C 903.24 500.33 939.18 496.36 975.11 492.22 C 991.89 490.19 1008.87 490.18 1025.59 487.44 C 1037.59 486.16 1049.35 483.36 1061.22 481.22 C 1067.22 480.67 1073.13 479.25 1079.21 479.25 C 1017.27 491.09 955.14 502.13 893.25 514.26 C 887.09 513.52 881.23 515.53 875.22 516.26 C 866.41 515.80 857.79 518.13 849.01 518.01 C 838.34 517.95 827.66 518.21 817.01 517.87 C 801.07 515.87 784.94 518.04 769.00 516.18 C 731.64 515.35 694.30 514.98 657.00 512.78 C 604.44 509.70 551.86 506.71 499.30 503.66 C 477.97 500.33 456.65 496.94 435.32 493.67 C 416.79 491.88 398.17 491.62 379.61 490.49 C 363.88 489.74 349.10 483.37 333.39 482.53 C 291.68 479.42 250.00 476.01 208.31 472.66 C 192.86 471.72 177.48 469.68 161.99 469.95 C 141.03 468.53 120.13 465.90 99.10 465.77 C 80.56 463.37 61.64 466.90 43.19 463.85 C 43.35 463.45 43.69 462.67 43.85 462.27 C 53.81 463.84 64.01 462.35 74.01 463.79 C 106.25 457.65 138.74 452.75 171.10 447.20 Z" />
<path fill="#3c3c3c" d=" M 474.72 450.19 C 476.37 450.15 478.06 449.98 479.69 450.36 C 500.98 455.75 521.41 466.80 544.00 465.03 C 560.69 464.48 577.34 465.56 594.01 466.02 C 614.29 464.24 634.67 465.41 655.00 464.84 C 665.94 463.43 677.00 464.00 688.00 464.10 C 698.50 465.12 708.83 467.41 719.31 468.66 C 741.96 467.62 764.47 464.53 787.01 462.10 C 797.67 461.24 807.93 464.79 818.30 466.67 C 870.06 468.03 921.84 469.94 973.60 471.61 C 1003.77 472.14 1033.91 477.06 1064.11 474.23 C 1085.34 470.58 1106.89 468.51 1127.91 463.83 C 1138.40 461.11 1149.27 460.29 1160.00 458.90 L 1160.00 460.83 C 1129.00 466.14 1098.05 471.90 1067.03 477.13 C 1022.63 479.75 978.18 484.47 933.70 481.37 C 893.91 480.26 854.15 479.31 814.38 477.49 C 811.44 477.11 808.62 475.81 805.69 476.56 C 792.89 478.51 779.88 478.14 767.00 477.84 C 749.31 475.68 731.41 478.17 713.70 476.37 C 700.14 475.45 686.56 476.44 673.00 475.82 C 654.26 473.90 635.38 475.96 616.62 474.47 C 599.44 473.05 582.13 475.15 564.99 473.15 C 559.45 472.79 553.89 473.24 548.40 472.50 C 537.12 469.71 526.46 464.88 514.96 462.96 C 501.68 458.30 488.22 454.19 474.72 450.19 Z" />
<path fill="#373737" d=" M 0.00 457.88 C 14.66 458.98 29.12 462.06 43.85 462.27 C 43.69 462.67 43.35 463.45 43.19 463.85 C 61.64 466.90 80.56 463.37 99.10 465.77 C 120.13 465.90 141.03 468.53 161.99 469.95 C 177.48 469.68 192.86 471.72 208.31 472.66 C 250.00 476.01 291.68 479.42 333.39 482.53 C 349.10 483.37 363.88 489.74 379.61 490.49 C 398.17 491.62 416.79 491.88 435.32 493.67 C 456.65 496.94 477.97 500.33 499.30 503.66 C 551.86 506.71 604.44 509.70 657.00 512.78 C 694.30 514.98 731.64 515.35 769.00 516.18 C 784.94 518.04 801.07 515.87 817.01 517.87 C 827.66 518.21 838.34 517.95 849.01 518.01 C 857.79 518.13 866.41 515.80 875.22 516.26 C 846.05 521.19 817.00 529.56 787.11 526.69 C 772.45 524.98 757.63 527.12 743.00 525.16 C 697.35 525.02 651.87 520.84 606.30 518.66 C 558.06 516.04 509.85 512.67 461.59 510.65 C 444.87 509.92 429.23 503.41 413.00 500.03 C 399.63 497.11 386.34 493.79 372.88 491.32 C 361.76 490.10 351.15 486.03 340.01 484.99 C 281.67 480.34 223.32 475.78 165.00 471.09 C 148.34 472.47 131.63 473.24 115.00 474.87 C 101.01 475.48 87.10 473.56 73.11 473.68 C 48.79 471.48 24.16 475.20 0.00 470.90 L 0.00 457.88 Z" />
<path fill="#333333" d=" M 1153.23 465.26 C 1155.46 464.93 1157.72 464.55 1160.00 464.13 L 1160.00 660.00 L 0.00 660.00 L 0.00 478.99 C 34.46 491.85 69.40 503.47 104.00 516.00 C 130.36 526.97 156.75 537.85 183.03 548.96 C 191.64 553.25 201.62 552.17 210.90 553.23 C 237.72 557.11 264.57 560.76 291.41 564.47 C 307.41 566.76 323.41 569.36 339.62 569.48 C 360.76 570.10 381.88 572.90 403.01 570.94 C 467.90 567.78 532.81 564.94 597.70 561.70 C 628.78 557.90 659.94 554.85 691.03 551.09 C 711.74 548.68 732.67 547.18 752.92 541.89 C 761.50 539.46 770.45 538.42 779.03 536.04 C 794.95 531.73 811.47 529.88 827.63 526.61 C 849.50 522.47 871.41 518.53 893.25 514.26 C 955.14 502.13 1017.27 491.09 1079.21 479.25 C 1103.89 474.71 1128.59 470.10 1153.23 465.26 Z" />
<path fill="#363636" d=" M 0.00 470.90 C 24.16 475.20 48.79 471.48 73.11 473.68 C 87.10 473.56 101.01 475.48 115.00 474.87 C 131.63 473.24 148.34 472.47 165.00 471.09 C 223.32 475.78 281.67 480.34 340.01 484.99 C 351.15 486.03 361.76 490.10 372.88 491.32 C 386.34 493.79 399.63 497.11 413.00 500.03 C 429.23 503.41 444.87 509.92 461.59 510.65 C 509.85 512.67 558.06 516.04 606.30 518.66 C 651.87 520.84 697.35 525.02 743.00 525.16 C 757.63 527.12 772.45 524.98 787.11 526.69 C 817.00 529.56 846.05 521.19 875.22 516.26 C 881.23 515.53 887.09 513.52 893.25 514.26 C 871.41 518.53 849.50 522.47 827.63 526.61 C 811.47 529.88 794.95 531.73 779.03 536.04 C 777.33 536.11 773.93 536.25 772.24 536.32 C 727.80 534.36 683.38 532.28 639.00 529.22 C 614.98 528.47 591.05 525.81 567.01 525.84 C 551.70 524.24 536.28 525.81 521.00 524.18 C 508.80 523.21 496.34 525.45 484.33 522.58 C 462.75 516.89 441.19 511.14 419.58 505.57 C 395.15 501.29 370.73 496.96 346.32 492.58 C 339.87 490.96 333.03 490.16 326.68 492.65 C 313.20 496.92 298.93 496.44 284.98 497.11 C 245.67 499.78 206.29 501.65 167.00 504.76 C 158.75 504.80 150.55 506.98 142.32 505.58 C 130.68 502.85 119.21 499.45 107.67 496.36 C 106.34 495.82 104.99 496.31 103.72 496.75 C 81.12 490.97 58.63 484.72 36.06 478.82 C 24.36 475.14 12.06 474.61 0.00 472.91 L 0.00 470.90 Z" />
<path fill="#343434" d=" M 0.00 472.91 C 12.06 474.61 24.36 475.14 36.06 478.82 C 58.63 484.72 81.12 490.97 103.72 496.75 C 123.05 502.47 142.73 506.90 162.32 511.61 C 183.59 516.01 202.64 526.81 222.89 534.14 C 234.52 535.50 246.30 536.08 257.99 537.20 C 276.35 539.61 294.52 533.34 312.91 534.16 C 329.50 537.33 346.12 540.77 363.01 541.85 C 393.02 542.93 422.99 545.17 453.01 546.01 C 493.99 543.68 535.01 542.27 575.99 540.01 C 602.99 540.03 630.00 539.90 657.01 540.07 C 669.57 541.72 682.26 540.51 694.89 541.31 C 709.20 542.43 723.59 542.57 737.91 543.75 C 749.33 541.22 760.73 538.52 772.24 536.32 C 773.93 536.25 777.33 536.11 779.03 536.04 C 770.45 538.42 761.50 539.46 752.92 541.89 C 732.67 547.18 711.74 548.68 691.03 551.09 C 659.94 554.85 628.78 557.90 597.70 561.70 C 532.81 564.94 467.90 567.78 403.01 570.94 C 381.88 572.90 360.76 570.10 339.62 569.48 C 323.41 569.36 307.41 566.76 291.41 564.47 C 264.57 560.76 237.72 557.11 210.90 553.23 C 201.62 552.17 191.64 553.25 183.03 548.96 C 156.75 537.85 130.36 526.97 104.00 516.00 C 69.40 503.47 34.46 491.85 0.00 478.99 L 0.00 472.91 Z" />
<path fill="#353535" d=" M 326.68 492.65 C 333.03 490.16 339.87 490.96 346.32 492.58 C 370.73 496.96 395.15 501.29 419.58 505.57 C 441.19 511.14 462.75 516.89 484.33 522.58 C 496.34 525.45 508.80 523.21 521.00 524.18 C 536.28 525.81 551.70 524.24 567.01 525.84 C 591.05 525.81 614.98 528.47 639.00 529.22 C 683.38 532.28 727.80 534.36 772.24 536.32 C 760.73 538.52 749.33 541.22 737.91 543.75 C 723.59 542.57 709.20 542.43 694.89 541.31 C 682.26 540.51 669.57 541.72 657.01 540.07 C 630.00 539.90 602.99 540.03 575.99 540.01 C 535.01 542.27 493.99 543.68 453.01 546.01 C 422.99 545.17 393.02 542.93 363.01 541.85 C 346.12 540.77 329.50 537.33 312.91 534.16 C 294.52 533.34 276.35 539.61 257.99 537.20 C 246.30 536.08 234.52 535.50 222.89 534.14 C 202.64 526.81 183.59 516.01 162.32 511.61 C 142.73 506.90 123.05 502.47 103.72 496.75 C 104.99 496.31 106.34 495.82 107.67 496.36 C 119.21 499.45 130.68 502.85 142.32 505.58 C 150.55 506.98 158.75 504.80 167.00 504.76 C 206.29 501.65 245.67 499.78 284.98 497.11 C 298.93 496.44 313.20 496.92 326.68 492.65 Z" />
</svg>
